<svg width="34" height="30" fill="none" xmlns="http://www.w3.org/2000/svg"><path d="M32.7 4.4L11.9 0c-.9-.1-1.8.4-2 1.3l-.4 2.5 24 5 .5-2.5c.2-.9-.4-1.7-1.3-1.9zM24 9.4a1.7 1.7 0 0 0-2-1.2l-4 1.1-9.4-2-1 4.9-6.4 1.7c-.9.3-1.4 1.2-1.1 2l3.6 12.9c.2.9 1.1 1.4 2 1.1l20.7-5.6c.9-.3 1.4-1.2 1.2-2l-.7-2.3 2.4.5c.8.2 1.7-.4 1.9-1.2l1.5-6.9-8.4-1.8-.4-1.2zm2.3 6.5l.5-2.4c.1-.3.5-.6.8-.5l2.5.5c.3 0 .6.4.5.8l-.5 2.4c-.1.4-.5.6-.8.5l-2.4-.5a.7.7 0 0 1-.6-.8zm-24.7-.7l20.7-5.7c.2 0 .3 0 .3.2l.8 2.5L2 18.1l-.7-2.5c0-.2 0-.4.2-.4zm24.7 7.4v.2l-.3.2-20.7 5.7c-.2 0-.3-.1-.3-.3L2.9 21l21.3-5.8 2 7.5z" fill="#565EF5"/><path d="M8.7 23.1a.7.7 0 0 0-.8-.5l-2.5.7c-.3.1-.5.5-.4.8l.6 2.4c.1.4.5.6.9.5l2.4-.7c.3 0 .6-.4.5-.8l-.7-2.4z" fill="#565EF5"/></svg>