<svg width="37" height="42" fill="none" xmlns="http://www.w3.org/2000/svg"><path d="M30.9 29.3L18.5 41 6.1 29.3a15.8 15.8 0 0 1-3.8-18C3.7 8.1 6 5.5 8.8 3.7a18.2 18.2 0 0 1 19.4 0c2.9 1.8 5.1 4.4 6.5 7.4a15.8 15.8 0 0 1-3.8 18z" fill="#2C36F2"/><path d="M19.5 10.2h-1.7l-7.4 12.3h2.2l1-1.8 6-10.5z" fill="#2C36F2"/><path d="M11.4 24.6h14.2l-6-10.9-1.1 1.8 3 5.2 1 1.8H10.5l1 2z" fill="#2C36F2"/><path d="M22.6 22.5l-1-1.8h-8l-1 1.8h10z" fill="#2C36F2"/><path d="M25.6 24.6l1-2.1-7-12.3-6 10.5h1.8l3.1-5.2 1-1.8 6.1 10.9z" fill="#2C36F2"/><path d="M18.5 15.5l-3 5.2h6l-3-5.2z" fill="#2C36F2"/><path d="M25.6 24.6H11.4l-1-2.1m15.2 2l1-2-7-12.3m6 14.4l-6-10.9-1.1 1.8m1-5.3h-1.7l-7.4 12.3m9.1-12.3l-6 10.5m-3.1 1.8h2.2m5.9-7l-3 5.2m3-5.2l3 5.2m-6 0h6m-6 0h-2m8 0l1 1.8h-10m1-1.8l-1 1.8M31 29.3L18.5 41 6.1 29.3a15.8 15.8 0 0 1-3.8-18C3.7 8.1 6 5.5 8.8 3.7a18.2 18.2 0 0 1 19.4 0c2.9 1.8 5.1 4.4 6.5 7.4a15.8 15.8 0 0 1-3.8 18z" stroke="#F6F7FF" stroke-width=".5"/></svg>