<svg width="16" height="16" fill="none" xmlns="http://www.w3.org/2000/svg"><path d="M8 0c2.17 0 2.44 0 3.3.05a5.9 5.9 0 0 1 1.94.37c.53.2.97.48 1.42.92.4.4.72.89.92 1.42.2.51.33 1.09.37 1.94.04.86.05 1.13.05 3.3s0 2.44-.05 3.3a5.91 5.91 0 0 1-.37 1.94 3.9 3.9 0 0 1-.92 1.42c-.4.4-.89.72-1.42.92-.51.2-1.09.33-1.94.37-.86.04-1.13.05-3.3.05s-2.44 0-3.3-.05a5.91 5.91 0 0 1-1.94-.37 3.91 3.91 0 0 1-1.42-.92c-.4-.4-.72-.89-.92-1.42a5.89 5.89 0 0 1-.37-1.94C0 10.44 0 10.17 0 8s0-2.44.05-3.3c.04-.85.17-1.43.37-1.94.2-.53.52-1.02.92-1.42.4-.4.89-.72 1.42-.92C3.27.22 3.85.09 4.7.05 5.56 0 5.83 0 8 0zm0 4a4 4 0 1 0 0 8 4 4 0 0 0 0-8zm5.2-.2a1 1 0 1 0-2 0 1 1 0 0 0 2 0zM8 5.6a2.4 2.4 0 1 1 0 4.8 2.4 2.4 0 0 1 0-4.8z" fill="#1F1E25"/></svg>